<?xml version="1.0" encoding="UTF-8"?>
<svg xmlns="http://www.w3.org/2000/svg" xmlns:xlink="http://www.w3.org/1999/xlink" width="20px" height="20px" viewBox="0 0 20 20" version="1.1">
<defs>
<linearGradient id="linear0" gradientUnits="userSpaceOnUse" x1="120" y1="240" x2="120" y2="0" gradientTransform="matrix(0.0833333,0,0,0.0833333,0,0)">
<stop offset="0" style="stop-color:rgb(11.372549%,57.647059%,82.352941%);stop-opacity:1;"/>
<stop offset="1" style="stop-color:rgb(21.960784%,69.019608%,89.019608%);stop-opacity:1;"/>
</linearGradient>
</defs>
<g id="surface1">
<path style=" stroke:none;fill-rule:nonzero;fill:url(#linear0);" d="M 20 10 C 20 15.523438 15.523438 20 10 20 C 4.476562 20 0 15.523438 0 10 C 0 4.476562 4.476562 0 10 0 C 15.523438 0 20 4.476562 20 10 Z M 20 10 "/>
<path style=" stroke:none;fill-rule:nonzero;fill:rgb(78.431373%,85.490196%,91.764706%);fill-opacity:1;" d="M 6.769531 10.730469 L 7.957031 14.015625 C 7.957031 14.015625 8.105469 14.320312 8.261719 14.320312 C 8.421875 14.320312 10.785156 11.863281 10.785156 11.863281 L 13.410156 6.789062 L 6.8125 9.882812 Z M 6.769531 10.730469 "/>
<path style=" stroke:none;fill-rule:nonzero;fill:rgb(66.27451%,77.647059%,84.705882%);fill-opacity:1;" d="M 8.34375 11.574219 L 8.113281 13.992188 C 8.113281 13.992188 8.019531 14.734375 8.761719 13.992188 C 9.503906 13.253906 10.210938 12.679688 10.210938 12.679688 "/>
<path style=" stroke:none;fill-rule:nonzero;fill:rgb(100%,100%,100%);fill-opacity:1;" d="M 6.789062 10.847656 L 4.351562 10.054688 C 4.351562 10.054688 4.058594 9.933594 4.152344 9.667969 C 4.171875 9.609375 4.210938 9.5625 4.328125 9.484375 C 4.867188 9.105469 14.335938 5.703125 14.335938 5.703125 C 14.335938 5.703125 14.601562 5.613281 14.761719 5.671875 C 14.839844 5.699219 14.902344 5.761719 14.917969 5.84375 C 14.933594 5.914062 14.941406 5.988281 14.9375 6.058594 C 14.9375 6.121094 14.929688 6.179688 14.925781 6.269531 C 14.867188 7.203125 13.140625 14.144531 13.140625 14.144531 C 13.140625 14.144531 13.039062 14.550781 12.667969 14.566406 C 12.484375 14.570312 12.308594 14.503906 12.175781 14.375 C 11.449219 13.75 8.941406 12.0625 8.386719 11.695312 C 8.359375 11.675781 8.34375 11.648438 8.339844 11.617188 C 8.332031 11.578125 8.375 11.53125 8.375 11.53125 C 8.375 11.53125 12.742188 7.648438 12.859375 7.238281 C 12.867188 7.207031 12.835938 7.191406 12.789062 7.207031 C 12.5 7.3125 7.46875 10.488281 6.914062 10.839844 C 6.875 10.851562 6.832031 10.855469 6.789062 10.847656 Z M 6.789062 10.847656 "/>
</g>
</svg>
